<svg
  width="283"
  height="283"
  viewBox="0 0 283 283"
  fill="none"
  xmlns="http://www.w3.org/2000/svg"
>
<rect x="0.561523" y="0.0700684" width="282" height="282" fill="#3420A3" />
<path
    fill-rule="evenodd"
    clip-rule="evenodd"
    d="M103.108 51.3422H128.744V76.9786H103.108V51.3422ZM77.4712 76.9786H51.835V102.615V102.615V128.251H77.4712H77.4713H103.108V102.615V102.615V76.9786H77.4713H77.4712ZM103.108 51.3422H77.4712V76.9786H103.108V51.3422ZM103.108 102.615H128.744V128.251H103.108V102.615ZM103.108 153.888V128.251H77.4713H77.4712H51.835V153.888H77.4712H77.4713H103.108ZM103.108 179.524V205.161V230.797H77.4712H51.835V205.161V179.524H77.4712H103.108ZM51.835 179.524V153.888H77.4712H77.4713H103.108V179.524H77.4712H51.835ZM205.655 205.161V179.525V153.888V128.252H180.019V153.888L180.018 153.888V128.252H154.381V153.888H154.382V179.525V205.161H180.019H205.655ZM180.019 230.797V205.161H205.655H231.291V230.797H205.655H180.019ZM154.382 102.616V76.9792H180.019H205.655V102.616H180.019H154.382ZM180.019 51.3428H154.382V76.9791H180.019H205.655V51.3428H180.019ZM180.018 102.616V128.252H154.381V102.616H180.018ZM180.019 102.616V128.252H205.655H231.291V102.616H205.655H180.019Z"
    fill="white"
  />
</svg>
